<svg width="2606" height="406" viewBox="0 0 2606 406" fill="none" xmlns="http://www.w3.org/2000/svg">
<g clip-path="url(#clip0_7327_28)">
<path d="M681.11 206.47V324.06C681.11 339.81 668.22 352.71 652.46 352.71H584.7C568.95 352.71 556.05 339.82 556.05 324.06V217.62C556.05 201.8 543.11 188.86 527.29 188.86H458.71C442.89 188.86 429.95 201.8 429.95 217.62V259.72C429.95 274.98 417.48 287.45 402.22 287.45H307.82C292.56 287.45 280.09 274.98 280.09 259.72V192.59C280.09 174.67 265.43 160.01 247.51 160.01H150.92C133 160.01 118.34 174.67 118.34 192.59V370.09C118.34 390.05 102.03 406.36 82.07 406.36H36.28C16.32 406.36 0.0100098 390.05 0.0100098 370.09V180.26C0.0100098 160.3 16.32 143.99 36.28 143.99H46.54C64.64 143.99 79.3 129.31 79.3 111.21V37.03C79.29 16.67 95.96 0 116.32 0H272.6C292.96 0 309.63 16.67 309.63 37.03V119.36C309.63 133.08 320.85 144.3 334.55 144.3H381.77C395.49 144.3 406.71 133.08 406.71 119.36V86.11C406.71 69.24 420.52 55.43 437.39 55.43H564.01C580.88 55.43 594.69 69.24 594.69 86.11V145.04C594.69 163.14 609.35 177.82 627.45 177.82H652.46C668.21 177.82 681.11 190.71 681.11 206.47Z" fill="white"/>
<path d="M817.12 349.8C813.89 349.8 811.27 347.18 811.27 343.95V132.44C811.27 129.21 813.89 126.59 817.12 126.59H837.18C840.41 126.59 843.03 129.21 843.03 132.44V219.8C843.03 221.19 841.91 222.31 840.52 222.31C839.13 222.31 838.01 221.19 838.02 219.8C838.23 199.15 841.01 181.6 846.37 167.13C852.22 151.8 860.86 140.1 872.29 132.02C883.72 123.94 898.21 119.9 915.76 119.9H917.43C934.99 119.9 949.48 123.94 960.9 132.02C972.6 140.1 981.24 151.81 986.82 167.13C991.89 180.81 994.65 197.25 995.11 216.46C995.19 219.69 992.56 222.31 989.33 222.31C986.1 222.31 983.47 219.69 983.55 216.46C984.03 197.25 986.94 180.81 992.26 167.13C998.11 151.8 1006.75 140.1 1018.18 132.02C1029.88 123.94 1044.51 119.9 1062.07 119.9H1063.74C1081.3 119.9 1095.93 123.94 1107.63 132.02C1119.33 140.1 1127.97 151.81 1133.55 167.13C1139.4 182.18 1142.33 200.57 1142.33 222.31V343.95C1142.33 347.18 1139.71 349.8 1136.48 349.8H1108.06C1104.83 349.8 1102.21 347.18 1102.21 343.95V213.53C1102.21 195.42 1097.75 181.48 1088.83 171.73C1079.91 161.7 1067.51 156.68 1051.63 156.68C1035.75 156.68 1021.95 161.97 1011.92 172.56C1001.89 182.87 996.87 197.36 996.87 216.03V343.94C996.87 347.17 994.25 349.79 991.02 349.79H962.6C959.37 349.79 956.75 347.17 956.75 343.94V213.52C956.75 195.41 952.29 181.47 943.37 171.72C934.45 161.69 922.05 156.67 906.17 156.67C890.29 156.67 876.49 161.96 866.46 172.55C856.43 182.86 851.41 197.35 851.41 216.02V343.93C851.41 347.16 848.79 349.78 845.56 349.78H817.14L817.12 349.8Z" fill="white"/>
<path d="M1205.98 349.8C1202.75 349.8 1200.13 347.18 1200.13 343.95V132.44C1200.13 129.21 1202.75 126.59 1205.98 126.59H1226.04C1229.28 126.59 1231.89 129.21 1231.89 132.44V219.8C1231.89 221.19 1230.77 222.31 1229.38 222.31C1227.99 222.31 1226.87 221.19 1226.88 219.8C1227.09 199.15 1229.87 181.6 1235.23 167.13C1241.08 151.8 1249.72 140.1 1261.15 132.02C1272.58 123.94 1287.07 119.9 1304.62 119.9H1306.29C1323.85 119.9 1338.34 123.94 1349.76 132.02C1361.46 140.1 1370.1 151.81 1375.68 167.13C1380.75 180.81 1383.51 197.25 1383.97 216.46C1384.05 219.69 1381.42 222.31 1378.18 222.31C1374.94 222.31 1372.32 219.69 1372.4 216.46C1372.88 197.25 1375.79 180.81 1381.1 167.13C1386.95 151.8 1395.59 140.1 1407.02 132.02C1418.72 123.94 1433.35 119.9 1450.91 119.9H1452.58C1470.14 119.9 1484.77 123.94 1496.47 132.02C1508.17 140.1 1516.81 151.81 1522.39 167.13C1528.24 182.18 1531.17 200.57 1531.17 222.31V343.95C1531.17 347.18 1528.55 349.8 1525.32 349.8H1496.9C1493.67 349.8 1491.05 347.18 1491.05 343.95V213.53C1491.05 195.42 1486.59 181.48 1477.67 171.73C1468.75 161.7 1456.35 156.68 1440.47 156.68C1424.59 156.68 1410.79 161.97 1400.76 172.56C1390.73 182.87 1385.71 197.36 1385.71 216.03V343.94C1385.71 347.17 1383.09 349.79 1379.86 349.79H1351.44C1348.21 349.79 1345.59 347.17 1345.59 343.94V213.52C1345.59 195.41 1341.13 181.47 1332.21 171.72C1323.29 161.69 1310.89 156.67 1295.01 156.67C1279.13 156.67 1265.33 161.96 1255.3 172.55C1245.27 182.86 1240.25 197.35 1240.25 216.02V343.93C1240.25 347.16 1237.63 349.78 1234.4 349.78H1205.98V349.8Z" fill="white"/>
<path d="M1713.13 349.8C1709.9 349.8 1707.28 347.18 1707.28 343.95V132.44C1707.28 129.21 1709.9 126.59 1713.13 126.59H1733.19C1736.43 126.59 1739.04 129.21 1739.04 132.44V219.8C1739.04 221.19 1737.92 222.31 1736.53 222.31C1735.14 222.31 1734.02 221.19 1734.03 219.8C1734.25 198.88 1737.17 181.19 1742.8 166.71C1748.93 151.38 1758.13 139.82 1770.39 132.01C1782.65 123.93 1798.12 119.89 1816.79 119.89H1818.46C1846.61 119.89 1867.37 128.67 1880.74 146.22C1894.4 163.78 1901.22 189.14 1901.22 222.3V343.94C1901.22 347.17 1898.6 349.79 1895.37 349.79H1866.95C1863.72 349.79 1861.1 347.17 1861.1 343.94V213.94C1861.1 196.66 1856.23 182.87 1846.47 172.56C1836.72 161.97 1823.34 156.68 1806.34 156.68C1789.34 156.68 1774.57 162.11 1763.7 172.98C1752.83 183.85 1747.4 198.34 1747.4 216.45V343.94C1747.4 347.17 1744.78 349.79 1741.55 349.79H1713.13V349.8Z" fill="white"/>
<path d="M2056.88 357.32C2041 357.32 2026.37 354.39 2012.99 348.54C1999.61 342.69 1987.91 334.47 1977.88 323.88C1968.13 313.29 1960.47 301.03 1954.89 287.09C1949.6 273.16 1946.95 258.11 1946.95 241.94V234.42C1946.95 218.54 1949.6 203.63 1954.89 189.69C1960.19 175.76 1967.57 163.49 1977.04 152.9C1986.8 142.31 1998.22 134.09 2011.32 128.24C2024.7 122.11 2039.47 119.04 2055.63 119.04C2072.63 119.04 2088.1 122.66 2102.03 129.91C2115.97 136.88 2127.39 147.88 2136.31 162.93C2142.29 173.03 2146.52 185.13 2148.99 199.24C2150.03 205.17 2142.7 207.61 2139.51 202.5L2135.53 196.13C2134.95 195.2 2134.64 194.13 2134.64 193.03V60.5C2134.64 57.27 2137.26 54.65 2140.49 54.65H2168.91C2172.14 54.65 2174.76 57.27 2174.76 60.5V343.94C2174.76 347.17 2172.14 349.79 2168.91 349.79H2148.85C2145.62 349.79 2143 347.17 2143 343.94V256.45C2143 253.29 2145.56 250.73 2148.72 250.73C2151.88 250.73 2154.59 253.45 2154.35 256.7C2152.71 279.34 2147.53 297.97 2138.81 312.59C2129.34 328.2 2117.35 339.62 2102.86 346.87C2088.65 353.84 2073.32 357.32 2056.88 357.32ZM2062.31 322.21C2075.97 322.21 2088.37 319.14 2099.51 313.01C2110.66 306.88 2119.57 298.1 2126.26 286.68C2132.95 274.98 2136.29 261.32 2136.29 245.71V226.48C2136.29 211.15 2132.81 198.19 2125.84 187.6C2119.15 176.73 2110.1 168.51 2098.67 162.94C2087.53 157.09 2075.26 154.16 2061.88 154.16C2047.11 154.16 2034.02 157.64 2022.59 164.61C2011.45 171.58 2002.67 181.33 1996.26 193.87C1990.13 206.41 1987.06 221.18 1987.06 238.18C1987.06 255.18 1990.27 270.09 1996.67 282.91C2003.08 295.45 2012 305.2 2023.42 312.17C2034.85 318.86 2047.81 322.2 2062.3 322.2L2062.31 322.21Z" fill="white"/>
<path d="M2236.04 349.8C2232.8 349.8 2230.19 347.18 2230.19 343.95V313.66C2230.19 310.43 2232.81 307.81 2236.04 307.81H2272.83C2276.06 307.81 2278.68 310.43 2278.68 313.66V343.95C2278.68 347.18 2276.06 349.8 2272.83 349.8H2236.04Z" fill="white"/>
<path d="M2563.4 96.89C2560.16 96.89 2557.55 94.27 2557.55 89.04V58.75C2557.55 57.52 2560.17 54.9 2563.4 54.9H2600.19C2603.42 54.9 2606.04 57.52 2606.04 60.75V91.04C2606.04 94.27 2603.42 96.89 2600.19 96.89H2563.4Z" fill="white"/>
<path d="M2472.71 349.8C2469.48 349.8 2466.86 347.18 2466.86 343.95V286.26C2466.86 284.41 2465.36 282.92 2463.52 282.92C2461.68 282.92 2460.18 281.42 2460.18 279.58V205.59C2460.18 190.26 2456.14 178.7 2448.06 170.89C2440.26 163.09 2428.69 159.19 2413.36 159.19C2404.72 159.19 2395.8 159.33 2386.61 159.61C2377.41 159.89 2368.64 160.17 2360.28 160.45C2354.66 160.64 2349.55 160.89 2344.93 161.2C2341.49 161.43 2338.54 158.74 2338.54 155.3V131.94C2338.54 128.91 2340.85 126.38 2343.87 126.15C2348.36 125.81 2353 125.54 2357.77 125.34C2364.74 124.78 2371.84 124.5 2379.09 124.5C2386.34 124.22 2393.3 124.08 2399.99 124.08C2422.84 124.08 2441.52 126.87 2456 132.44C2470.49 137.73 2481.22 146.51 2488.19 158.77C2495.16 171.03 2498.64 187.61 2498.64 208.51V343.95C2498.64 347.18 2496.02 349.8 2492.79 349.8H2472.71ZM2393.71 355.65C2376.99 355.65 2362.5 352.86 2350.24 347.29C2338.26 341.44 2328.92 333.08 2322.23 322.21C2315.82 311.34 2312.62 298.24 2312.62 282.92C2312.62 267.6 2316.11 253.8 2323.07 243.21C2330.32 232.62 2340.77 224.68 2354.42 219.38C2368.08 213.81 2384.52 211.02 2403.75 211.02H2458.51C2461.75 211.02 2464.36 213.64 2464.36 216.87V235.26C2464.36 238.49 2461.74 241.11 2458.51 241.11H2402.08C2385.92 241.11 2373.52 245.01 2364.88 252.81C2356.24 260.61 2351.92 270.65 2351.92 282.91C2351.92 295.17 2356.24 305.06 2364.88 312.59C2373.52 320.11 2385.92 323.88 2402.08 323.88C2411.56 323.88 2420.61 322.21 2429.25 318.86C2437.89 315.24 2445 309.38 2450.57 301.3C2453.9 296.55 2456.37 290.8 2457.99 284.07C2459.27 278.74 2466.81 276.71 2469.91 281.23C2470.65 282.32 2471 283.63 2470.87 284.94C2469.33 299.94 2465.49 312.64 2459.36 323.04C2453.23 333.63 2444.59 341.71 2433.44 347.28C2422.57 352.85 2409.34 355.64 2393.73 355.64L2393.71 355.65Z" fill="white"/>
<path d="M2571.76 349.8C2568.53 349.8 2565.91 347.18 2565.91 343.95V132.44C2565.91 129.21 2568.53 126.59 2571.76 126.59H2600.18C2603.41 126.59 2606.03 129.21 2606.03 132.44V343.95C2606.03 347.18 2603.41 349.8 2600.18 349.8H2571.76ZM2537.48 158.35C2534.25 158.35 2531.63 155.73 2531.63 152.5V132.44C2531.63 129.21 2534.25 126.59 2537.48 126.59H2600.18C2603.41 126.59 2606.03 129.21 2606.03 132.44V152.5C2606.03 155.73 2603.41 158.35 2600.18 158.35H2537.48Z" fill="white"/>
<path d="M1599.86 96.89C1596.62 96.89 1594.01 94.27 1594.01 89.04V58.75C1594.01 57.52 1596.63 54.9 1599.86 54.9H1636.65C1639.88 54.9 1642.5 57.52 1642.5 60.75V91.04C1642.5 94.27 1639.88 96.89 1636.65 96.89H1599.86Z" fill="white"/>
<path d="M1608.22 349.8C1604.99 349.8 1602.37 347.18 1602.37 343.95V132.44C1602.37 129.21 1604.99 126.59 1608.22 126.59H1636.64C1639.87 126.59 1642.49 129.21 1642.49 132.44V343.95C1642.49 347.18 1639.87 349.8 1636.64 349.8H1608.22ZM1573.94 158.35C1570.71 158.35 1568.09 155.73 1568.09 152.5V132.44C1568.09 129.21 1570.71 126.59 1573.94 126.59H1636.64C1639.87 126.59 1642.49 129.21 1642.49 132.44V152.5C1642.49 155.73 1639.87 158.35 1636.64 158.35H1573.94Z" fill="white"/>
</g>
<defs>
<clipPath id="clip0_7327_28">
<rect width="2606" height="406" fill="white"/>
</clipPath>
</defs>
</svg>
